<svg width="31" height="31" viewBox="0 0 31 31" fill="none" xmlns="http://www.w3.org/2000/svg">
<path fill-rule="evenodd" clip-rule="evenodd" d="M15.5 0C6.9397 0 0 6.9397 0 15.5C0 24.0603 6.9397 31 15.5 31C24.0603 31 31 24.0603 31 15.5C31 6.9397 24.0603 0 15.5 0ZM17.1155 16.1809V24.6138H13.6265V16.1812H11.8833V13.2751H13.6265V11.5305C13.6265 9.15967 14.6108 7.75 17.4072 7.75H19.7354V10.6562H18.28C17.1914 10.6562 17.1196 11.0625 17.1196 11.8203L17.1155 13.2749H19.752L19.4434 16.1809H17.1155Z" transform="translate(0 0.000488281)" fill="white"/>
</svg>
