<svg width="32" height="31" viewBox="0 0 32 31" fill="none" xmlns="http://www.w3.org/2000/svg">
<path fill-rule="evenodd" clip-rule="evenodd" d="M15.5322 0C6.9541 0 0 6.93945 0 15.5C0 24.0605 6.9541 31 15.5322 31C24.1106 31 31.0647 24.0605 31.0647 15.5C31.0647 6.93945 24.1106 0 15.5322 0ZM12.1172 7.2832C13.0007 7.24316 13.2832 7.2334 15.533 7.2334C17.7808 7.2334 18.0623 7.24316 18.9458 7.2832C19.8276 7.32373 20.4299 7.46289 20.958 7.66748C21.5034 7.87842 21.9644 8.16064 22.425 8.62061C22.8857 9.08008 23.1689 9.5415 23.3811 10.085C23.5847 10.6108 23.7246 11.2114 23.7661 12.0913C23.8057 12.9731 23.8162 13.2549 23.8162 15.5C23.8162 17.7451 23.8057 18.0264 23.7661 18.9082C23.7246 19.7876 23.5847 20.3887 23.3811 20.9146C23.1689 21.458 22.8857 21.9194 22.425 22.3789C21.9648 22.8384 21.5032 23.1216 20.9585 23.333C20.4316 23.5371 19.8289 23.6768 18.947 23.7168C18.0635 23.7573 17.782 23.7671 15.532 23.7671C13.2822 23.7671 13.0002 23.7573 12.1165 23.7168C11.2349 23.6768 10.6326 23.5371 10.1055 23.333C9.56104 23.1216 9.09888 22.8384 8.63867 22.3789C8.17798 21.9194 7.89502 21.458 7.68311 20.9146C7.47852 20.3887 7.33887 19.7881 7.29834 18.9077C7.2583 18.0264 7.24829 17.7451 7.24829 15.5C7.24829 13.2549 7.25854 12.9731 7.2981 12.0913C7.33789 11.2114 7.47754 10.6108 7.68311 10.085C7.89526 9.5415 8.17822 9.08008 8.63916 8.62061C9.09961 8.16113 9.56177 7.87842 10.1067 7.66748C10.6333 7.46289 11.2354 7.32373 12.1172 7.2832Z" transform="translate(0.514648)" fill="#654CA3"/>
<path fill-rule="evenodd" clip-rule="evenodd" d="M6.0481 0H6.79102C9.00293 0 9.26514 0.0078125 10.1384 0.0478516C10.9463 0.0844727 11.3845 0.219238 11.6765 0.33252C12.0632 0.481934 12.3389 0.661133 12.6287 0.950684C12.9185 1.23975 13.0979 1.51562 13.2485 1.90137C13.3618 2.19238 13.4971 2.62988 13.5337 3.43604C13.5735 4.30713 13.582 4.56885 13.582 6.77539C13.582 8.98145 13.5735 9.24316 13.5337 10.1147C13.4968 10.9209 13.3618 11.3579 13.2485 11.6494C13.0984 12.0352 12.9185 12.3096 12.6287 12.5986C12.3386 12.8882 12.0635 13.0674 11.6765 13.2173C11.385 13.3306 10.9463 13.4653 10.1384 13.502C9.26538 13.5415 9.00293 13.5503 6.79102 13.5503C4.5791 13.5503 4.31689 13.5415 3.4436 13.502C2.63599 13.4648 2.19775 13.3301 1.90552 13.2168C1.5188 13.0669 1.24268 12.8882 0.952881 12.5986C0.662842 12.3091 0.483398 12.0347 0.333008 11.6484C0.219482 11.3574 0.0844727 10.9199 0.0476074 10.1138C0.00805664 9.24268 0 8.98096 0 6.77295C0 4.56543 0.00805664 4.30518 0.0476074 3.43359C0.0844727 2.62793 0.219482 2.19043 0.333008 1.89893C0.483154 1.51318 0.662842 1.2373 0.952881 0.948242C1.24268 0.658691 1.5188 0.47998 1.90552 0.32959C2.19751 0.21582 2.63599 0.081543 3.4436 0.0444336C4.20801 0.0102539 4.50415 0 6.0481 0ZM11.2131 1.37305C10.6643 1.37305 10.219 1.81689 10.219 2.36475C10.219 2.91211 10.6643 3.35645 11.2131 3.35645C11.762 3.35645 12.207 2.91211 12.207 2.36475C12.207 1.81689 11.762 1.37256 11.2131 1.37305ZM2.53711 6.77686C2.53711 4.43262 4.44189 2.53174 6.79126 2.53174C9.14038 2.53174 11.0447 4.43262 11.0447 6.77686C11.0447 9.12158 9.14062 11.0215 6.79126 11.0215C4.44189 11.0215 2.53711 9.12158 2.53711 6.77686Z" transform="translate(9.25659 8.72314)" fill="#654CA3"/>
<path fill-rule="evenodd" clip-rule="evenodd" d="M2.76133 0C4.28627 0 5.52265 1.23364 5.52265 2.75558C5.52265 4.27736 4.28627 5.51117 2.76133 5.51117C1.23621 5.51117 0 4.27736 0 2.75558C0 1.23364 1.23621 0 2.76133 0V0Z" transform="translate(13.2864 12.7446)" fill="#654CA3"/>
</svg>
