<svg width="31" height="31" viewBox="0 0 31 31" fill="none" xmlns="http://www.w3.org/2000/svg">
<path fill-rule="evenodd" clip-rule="evenodd" d="M15.5 0C6.9397 0 0 6.9397 0 15.5C0 24.0603 6.9397 31 15.5 31C24.0603 31 31 24.0603 31 15.5C31 6.9397 24.0603 0 15.5 0ZM12.0923 7.28345C12.9736 7.24316 13.2554 7.2334 15.4983 7.2334C17.7441 7.2334 18.0249 7.24316 18.9065 7.28345C19.7866 7.32373 20.3877 7.46289 20.9148 7.66748C21.459 7.87842 21.9187 8.16089 22.3787 8.62061C22.8384 9.08008 23.1208 9.54126 23.3328 10.0852C23.5359 10.6106 23.6755 11.2114 23.7168 12.0916C23.7563 12.9734 23.7668 13.2551 23.7668 15.5002C23.7668 17.7454 23.7563 18.0264 23.7168 18.9082C23.6755 19.7878 23.5359 20.3887 23.3328 20.9146C23.1208 21.458 22.8384 21.9192 22.3787 22.3787C21.9192 22.8386 21.4587 23.1218 20.9153 23.333C20.3892 23.5374 19.7878 23.6768 18.9077 23.717C18.0259 23.7571 17.7451 23.7668 15.4998 23.7668C13.2549 23.7668 12.9734 23.7571 12.0916 23.717C11.2117 23.6768 10.6106 23.5374 10.0847 23.333C9.54126 23.1218 9.08008 22.8386 8.62085 22.3787C8.16113 21.9192 7.87866 21.458 7.66748 20.9143C7.46313 20.3887 7.32373 19.7881 7.28345 18.908C7.24341 18.0261 7.2334 17.7454 7.2334 15.5002C7.2334 13.2551 7.24365 12.9731 7.2832 12.0913C7.32275 11.2117 7.4624 10.6106 7.66724 10.085C7.87915 9.54126 8.16162 9.08008 8.62134 8.62061C9.08081 8.16089 9.54199 7.87866 10.0857 7.66748C10.6113 7.46289 11.2122 7.32373 12.0923 7.28345Z" transform="translate(0 0.000488281)" fill="white"/>
<path fill-rule="evenodd" clip-rule="evenodd" d="M6.0354 0.00195312H6.7771C8.98413 0.00195312 9.24585 0.0100098 10.1174 0.0495605C10.9236 0.0864258 11.3608 0.221191 11.6523 0.334229C12.0381 0.484131 12.3132 0.66333 12.6023 0.952637C12.8916 1.24194 13.0708 1.51758 13.2209 1.90332C13.334 2.19434 13.469 2.63184 13.5056 3.43774C13.5452 4.30933 13.554 4.57104 13.554 6.7771C13.554 8.9834 13.5452 9.24512 13.5056 10.1167C13.4688 10.9226 13.334 11.3601 13.2209 11.6511C13.071 12.0369 12.8916 12.3115 12.6023 12.6008C12.313 12.8901 12.0383 13.0693 11.6523 13.219C11.3613 13.3328 10.9236 13.467 10.1174 13.5039C9.24609 13.5435 8.98413 13.5522 6.7771 13.5522C4.56958 13.5522 4.30811 13.5435 3.43652 13.5039C2.63062 13.4668 2.19312 13.332 1.90161 13.219C1.51562 13.0691 1.24023 12.8899 0.950928 12.6006C0.661621 12.3113 0.482422 12.0364 0.332275 11.6504C0.218994 11.3594 0.0842285 10.9219 0.0476074 10.116C0.0078125 9.24438 0 8.98267 0 6.77515C0 4.56763 0.0078125 4.30713 0.0476074 3.43579C0.0844727 2.62964 0.218994 2.19214 0.332275 1.90088C0.481934 1.51514 0.661621 1.2395 0.950928 0.950195C1.24023 0.660889 1.51562 0.481689 1.90161 0.331543C2.19287 0.217773 2.63062 0.0834961 3.43652 0.0463867C4.19922 0.0119629 4.49463 0.00170898 6.0354 0V0.00195312ZM11.1897 1.37427C10.6421 1.37427 10.1978 1.81812 10.1978 2.36597C10.1978 2.91382 10.6421 3.35815 11.1897 3.35815C11.7375 3.35815 12.1819 2.91382 12.1819 2.36597C12.1819 1.81836 11.7375 1.37402 11.1897 1.37427ZM2.53174 6.77905C2.53174 4.43457 4.43262 2.53369 6.7771 2.53369C9.12134 2.53369 11.0217 4.43457 11.0217 6.77905C11.0217 9.12354 9.12158 11.0234 6.7771 11.0234C4.43262 11.0234 2.53174 9.12354 2.53174 6.77905Z" transform="translate(8.72388 8.72168)" fill="white"/>
<path fill-rule="evenodd" clip-rule="evenodd" d="M2.75558 0C4.27736 0 5.51117 1.23364 5.51117 2.75558C5.51117 4.27736 4.27736 5.51117 2.75558 5.51117C1.23364 5.51117 0 4.27736 0 2.75558C0 1.23364 1.23364 0 2.75558 0V0Z" transform="translate(12.7451 12.7451)" fill="white"/>
</svg>
