<svg width="32" height="31" viewBox="0 0 32 31" fill="none" xmlns="http://www.w3.org/2000/svg">
<path fill-rule="evenodd" clip-rule="evenodd" d="M15.5322 0C6.9541 0 0 6.93945 0 15.5C0 24.0605 6.9541 31 15.5322 31C24.1106 31 31.0647 24.0605 31.0647 15.5C31.0647 6.93945 24.1106 0 15.5322 0ZM22.0051 10.1714C22.718 10.3662 23.2795 10.9414 23.47 11.6719C23.8164 12.9961 23.8164 15.7583 23.8164 15.7583C23.8164 15.7583 23.8164 18.52 23.47 19.8442C23.2795 20.5747 22.718 21.1499 22.0051 21.3452C20.7134 21.6997 15.5325 21.6997 15.5325 21.6997C15.5325 21.6997 10.3516 21.6997 9.05957 21.3452C8.34668 21.1499 7.78516 20.5747 7.59473 19.8442C7.24854 18.52 7.24854 15.7583 7.24854 15.7583C7.24854 15.7583 7.24854 12.9961 7.59473 11.6719C7.78516 10.9414 8.34668 10.3662 9.05957 10.1714C10.3516 9.81641 15.5325 9.81641 15.5325 9.81641C15.5325 9.81641 20.7134 9.81641 22.0051 10.1714Z" transform="translate(0.429199)" fill="#654CA3"/>
<path fill-rule="evenodd" clip-rule="evenodd" d="M0 5.16667V0L4.14194 2.58343L0 5.16667Z" transform="translate(14.4082 13.4336)" fill="#654CA3"/>
</svg>
