<svg width="31" height="31" viewBox="0 0 31 31" fill="none" xmlns="http://www.w3.org/2000/svg">
<path fill-rule="evenodd" clip-rule="evenodd" d="M15.5 0C6.9397 0 0 6.9397 0 15.5C0 24.0603 6.9397 31 15.5 31C24.0603 31 31 24.0603 31 15.5C31 6.9397 24.0603 0 15.5 0ZM21.9595 10.1711C22.6709 10.3665 23.2312 10.9417 23.4211 11.6721C23.7668 12.9958 23.7668 15.7581 23.7668 15.7581C23.7668 15.7581 23.7668 18.5203 23.4211 19.8442C23.2312 20.5745 22.6709 21.1497 21.9595 21.345C20.6702 21.6997 15.5 21.6997 15.5 21.6997C15.5 21.6997 10.3298 21.6997 9.04053 21.345C8.3291 21.1497 7.76904 20.5745 7.57886 19.8442C7.2334 18.5203 7.2334 15.7581 7.2334 15.7581C7.2334 15.7581 7.2334 12.9958 7.57886 11.6721C7.76904 10.9417 8.3291 10.3665 9.04053 10.1711C10.3298 9.81641 15.5 9.81641 15.5 9.81641C15.5 9.81641 20.6702 9.81641 21.9595 10.1711Z" transform="translate(0 0.000488281)" fill="white"/>
<path fill-rule="evenodd" clip-rule="evenodd" d="M0 5.16667V0L4.13333 2.58343L0 5.16667Z" transform="translate(13.95 13.4341)" fill="white"/>
</svg>
